# xmcd CD database file
#
# Track frame offsets:
#	150
#	15181
#	28581
#	44421
#	69246
#	86271
#	107796
#	126321
#	139971
#	152121
#	167646
#	183846
#	200018
#
# Disc length: 2944 seconds
#
# Revision: 0
# Processed by: cddbd v1.5.2PL0 Copyright (c) Steve Scherf et al.
# Submitted via: CDex 1.70beta2
#
DISCID=a60b7e0d
DTITLE=Young Sinatras - This Day!
DYEAR=2008
DGENRE=Jazz
TTITLE0=People Are Strange
TTITLE1=This Day
TTITLE2=Pick Yourself Up
TTITLE3=Detour Ahead
TTITLE4=She's Got It So 
TTITLE5=Harlem Walk
TTITLE6=Higher Ground 
TTITLE7=Angel Eyes
TTITLE8=The Feeder
TTITLE9=My Girl
TTITLE10=Moon River
TTITLE11=I've Got You Under My Skin
TTITLE12=Billie Jean
EXTD=YEAR: 2008
EXTT0=
EXTT1=
EXTT2=
EXTT3=
EXTT4=
EXTT5=
EXTT6=
EXTT7=
EXTT8=
EXTT9=
EXTT10=
EXTT11=
EXTT12=
PLAYORDER=
